<svg id="Capa_1" enable-background="new 0 0 510 510" height="512" viewBox="0 0 510 510" width="512" xmlns="http://www.w3.org/2000/svg"><g id="XMLID_224_"><path id="XMLID_1036_" d="m195 256.623v30l45-1.623 45-28.377 8-15-8-15c-5.001 1.667-84.999 28.333-90 30z" fill="#ff884d"/><path id="XMLID_1043_" d="m285 196.623v30l45-1.623 45-28.377 12-15-12-15c-5.001 1.667-84.999 28.333-90 30z" fill="#febd4e"/><path id="XMLID_1041_" d="m375 135v31.623h45l45-30c0-10.531 0-21.068 0-31.623-5.024 1.675-84.987 28.329-90 30z" fill="#ff4d4d"/><path id="XMLID_1033_" d="m105 316.623v30l45-5.29 45-24.71c0-10.492 0-19.508 0-30-5.001 1.667-84.999 28.333-90 30z" fill="#fede51"/><path id="XMLID_850_" d="m105 346.623v133.377c14.318 4.772 30.682 10.228 45 15 14.318-4.772 30.682-10.228 45-15l16.5-81.689-16.5-81.688c-5.001 1.667-84.999 28.333-90 30z" fill="#febd4e"/><path id="XMLID_1032_" d="m195 480c14.318 4.772 30.682 10.228 45 15 14.318-4.772 30.682-10.228 45-15l18.25-111.689-18.25-111.688c-5.001 1.667-84.999 28.333-90 30z" fill="#ff4d4d"/><path id="XMLID_1042_" d="m285 480c14.318 4.772 30.682 10.228 45 15 14.318-4.772 30.682-10.228 45-15l12-141.689-12-141.688c-5.001 1.667-84.999 28.333-90 30z" fill="#fd9f4b"/><path id="XMLID_1027_" d="m375 480c14.318 4.772 30.682 10.228 45 15 14.318-4.772 30.682-10.228 45-15 0-40.313 0-299.865 0-343.377-5.001 1.667-84.999 28.333-90 30z" fill="#cc295f"/><path id="XMLID_939_" d="m106.357 120.062c-.949 10.449-1.766 19.428-2.716 29.877 61.602 5.6 124.702-4.605 181.358-29.501l18.25-23.688-18.249-9.245c-55.189 26.834-116.786 38.178-178.643 32.557z" fill="#9bf"/><g fill="#d9e5ff"><path id="XMLID_1106_" d="m60 435c-10.492 0-19.508 0-30 0l-15-15 15-15h30z"/><path id="XMLID_1101_" d="m60 375c-10.492 0-19.508 0-30 0l-15-15 15-15h30z"/><path id="XMLID_1096_" d="m60 315c-10.492 0-19.508 0-30 0l-15-15 15-15h30z"/><path id="XMLID_1091_" d="m60 255c-10.492 0-19.508 0-30 0l-15-15 15-15h30z"/><path id="XMLID_1086_" d="m60 195c-10.492 0-19.508 0-30 0l-15-15 15-15h30z"/><path id="XMLID_1081_" d="m60 135c-10.492 0-19.508 0-30 0l-15-15 15-15h30z"/><path id="XMLID_1076_" d="m60 75c-10.492 0-19.508 0-30 0l-15-15 15-15h30z"/></g><path id="XMLID_936_" d="m390 50.978v24.022h30c0-20.194 0-63.236 0-75-20.194 0-63.236 0-75 0v30h23.52c-24.844 23.275-52.964 42.649-83.52 57.505v32.932c38.611-16.966 74.408-40.647 105-69.459z" fill="#69f"/><path id="XMLID_938_" d="m30 480c0-13.537 0-466.463 0-480-10.492 0-19.508 0-30 0v510h285l15-15-15-15c-7.193 0-247.807 0-255 0z" fill="#4d5e80"/><path id="XMLID_922_" d="m510 480c-15.191 0-209.806 0-225 0v30h225c0-10.492 0-19.508 0-30z" fill="#3d4566"/></g></svg>