<svg id="Capa_1" enable-background="new 0 0 498.899 498.899" height="512" viewBox="0 0 498.899 498.899" width="512" xmlns="http://www.w3.org/2000/svg"><g><path d="m289.427 174.372 7.62-23.263.972-1.355c7.497-10.455 6.82-24.836-1.626-34.508l-1.005-1.151 1.659-13.908c1.469-12.316-5.331-24.109-16.591-28.774l-1.802-12.617c-1.293-9.054-6.917-16.856-15-20.809l-13.063-6.39-3.245-7.059c-4.433-9.642-13.925-15.799-24.357-15.799h-11.111l-4.838-3.558c-8.713-6.408-20.324-6.913-29.539-1.285l-5.581 3.408-5.581-3.408c-9.215-5.628-20.826-5.123-29.539 1.285l-4.838 3.558h-11.111c-10.433 0-19.925 6.157-24.357 15.799l-3.245 7.059-13.063 6.39c-8.082 3.953-13.706 11.756-15 20.809l-1.802 12.617c-11.261 4.666-18.06 16.458-16.591 28.774l1.659 13.908-1.005 1.151c-8.445 9.672-9.123 24.053-1.626 34.508l.972 1.355 8.849 27.015 13.057 27.718h203.698z" fill="#a79ba7"/><path d="m260.706 365.229-47.46-20.82v-122.13h-81.98v122.13l-48.3 21.19-18.478 34.792 103.615 78.107s98.757-79.278 98.303-80.151-5.7-33.118-5.7-33.118z" fill="#ffcebf"/><path d="m131.266 222.279v122.13l-48.3 21.19-18.478 34.792 6.243 4.706 73.427-32.974c7.348-3.3 12.075-10.604 12.075-18.659v-7.12c0-8.148 6.609-14.751 14.757-14.743h.341c9.379 0 18.618-1.59 27.466-4.728l4.245-1.508c3.5-1.242 6.897-2.67 10.204-4.238v-98.849h-81.98z" fill="#ffb09e"/><g><path d="m59.456 461.099 8.115-21.75h-35.681l-20.694 21.75h-.02c-.29 3.26-.44 6.55-.44 9.87v17.441c0 4.268 3.44 7.739 7.708 7.777l46.442.412v-.15c-6.15-10.97-7.9-23.54-5.43-35.35z" fill="#ffdfcf"/></g><path d="m333.336 461.099-5.949-11.128h-41.509l-.822 11.128c2.47 11.81.72 24.38-5.43 35.35l-.02 2.04 46.647.41c4.371.038 7.915-3.531 7.845-7.902 0 0-.472-26.638-.762-29.898z" fill="#ffdfcf"/><g><path d="m285.056 461.099c2.47 11.81.72 24.38-5.43 35.35l-.02 2.04-214.72-1.89v-.15c-5.076-9.053-7.154-19.197-6.337-29.103.277-3.364-2.371-6.247-5.747-6.247h-41.606-.02c3.56-40.78 29.08-76.76 67.03-93.41l4.76-2.09 82.23 87.98c3.55 3.8 9.57 3.8 13.12 0l82.23-87.98.16-.37 5.6 2.46c37.95 16.65 63.47 52.63 67.03 93.41h-.02z" fill="#c1e9af"/></g><g><path d="m105.352 389.55-22.386-23.951-4.76 2.09c-37.95 16.65-63.47 52.63-67.03 93.41h.02 35.999c8.12-30.741 29.192-56.852 58.157-71.549z" fill="#ade194"/></g><g><path d="m82.532 214.968c-15.712 0-28.449-12.737-28.449-28.449 0-15.712 12.737-28.449 28.449-28.449h33.857v56.899h-33.857z" fill="#ffb09e"/><path d="m262.661 214.968c15.712 0 28.449-12.737 28.449-28.449 0-15.712-12.737-28.449-28.449-28.449h-42.177v56.899h42.177z" fill="#ffcebf"/><path d="m243.794 136.576-87.474-1.705-39.932 3.836-19.206 19.651.426 80.079 37.931 46.881 40.062 22.889h28.466c34.468-14.661 57.137-48.572 57.137-86.397v-64.467-8.851z" fill="#ffdfcf"/><g><path d="m210.271 175.66h-76.89c-4.142 0-7.5-3.357-7.5-7.5s3.358-7.5 7.5-7.5h76.89c4.142 0 7.5 3.357 7.5 7.5s-3.358 7.5-7.5 7.5z" fill="#f9f7f8"/></g><circle cx="367.829" cy="375.108" fill="#c8effe" r="120.334"/><path d="m287.874 375.108c0-59.578 43.311-109.048 100.156-118.652-6.565-1.109-13.32-1.682-20.201-1.682-66.458 0-120.334 53.875-120.334 120.334s53.875 120.333 120.334 120.333c6.881 0 13.649-.581 20.214-1.69-56.844-9.604-100.169-59.066-100.169-118.643z" fill="#99e6fc"/><circle cx="367.829" cy="375.108" fill="#fee97d" r="88.029"/><g><path d="m327.454 349.684c-4.142 0-7.5-3.357-7.5-7.5v-5.537c0-4.143 3.358-7.5 7.5-7.5s7.5 3.357 7.5 7.5v5.537c0 4.142-3.358 7.5-7.5 7.5z" fill="#a79ba7"/></g><g><path d="m408.204 349.684c-4.142 0-7.5-3.357-7.5-7.5v-5.537c0-4.143 3.358-7.5 7.5-7.5s7.5 3.357 7.5 7.5v5.537c0 4.142-3.358 7.5-7.5 7.5z" fill="#a79ba7"/></g><g id="XMLID_591_"><g><path d="m370.74 396.211-29.142 13.551-.74 13.482c7.15 6.43 16.6 10.34 26.97 10.34s19.84-3.91 26.98-10.34l3.515-16.12z" fill="#fd8087"/><path d="m408.208 385.744v7.46c0 11.93-5.17 22.65-13.4 30.04-5.48-9.19-15.51-15.35-26.98-15.35s-21.5 6.16-26.97 15.35c-8.23-7.38-13.4-18.11-13.4-30.04v-7.46c0-2.94 2.38-5.32 5.31-5.32h70.12c2.94 0 5.32 2.38 5.32 5.32z" fill="#fe99a0"/></g></g></g><path d="m197.39 197.153h28.616c5.432 0 9.836-4.404 9.836-9.836v-19.157c0-5.432-4.404-9.836-9.836-9.836h-28.616c-5.432 0-9.836 4.404-9.836 9.836v19.157c0 5.433 4.404 9.836 9.836 9.836z" fill="#99e6fc"/><path d="m250.61 121.836-4.309 2.272c-8.709 4.591-19.242 3.989-27.371-1.564l-8.037-5.491c-1.11-.759-2.566-.781-3.7-.058l-2.435 1.553c-9.364 5.974-21.457 5.49-30.314-1.213-1.19-.901-2.862-.901-4.052 0-8.857 6.703-20.95 7.186-30.314 1.213l-2.435-1.553c-1.134-.723-2.589-.7-3.7.058l-8.037 5.491c-2.926 1.999-6.165 3.345-9.517 4.05v.002c-5.96 1.254-12.28.45-17.854-2.489l-4.309-2.271c-4.812-2.537-10.597.952-10.597 6.393v93.58c0 39.622 24.866 74.981 62.152 88.382l3.503 1.259c14.588 5.243 30.542 5.276 45.152.092l4.254-1.509c1.834-.65 3.607-1.072 5.379-1.826-4.738-.621-9.404-2.048-13.958-3.684l-3.501-1.258c-37.287-13.401-62.153-48.761-62.153-88.382v-53.153c0-4.334 2.735-8.104 6.754-9.725 1.742-.703 3.424-1.597 5.014-2.683l8.037-5.491c1.11-.759 2.566-.781 3.7-.058l2.435 1.553c9.364 5.974 21.457 5.49 30.314-1.212l.121-.484c.571-2.283 3.931-1.869 3.931.484 8.857 6.703 20.95 7.186 30.314 1.212l2.435-1.553c1.134-.723 2.589-.7 3.7.058l8.037 5.491c8.129 5.553 18.662 6.155 27.371 1.564 0 0 4.494-2.351 4.586-2.395v-20.262c0-5.44-5.784-8.93-10.596-6.393z" fill="#ffcebf"/><path d="m146.485 197.153h-28.616c-5.432 0-9.836-4.404-9.836-9.836v-19.157c0-5.432 4.404-9.836 9.836-9.836h28.616c5.432 0 9.836 4.404 9.836 9.836v19.157c0 5.433-4.404 9.836-9.836 9.836z" fill="#99e6fc"/></g></svg>