<?xml version="1.0" encoding="iso-8859-1"?>
<!-- Generator: Adobe Illustrator 19.0.0, SVG Export Plug-In . SVG Version: 6.00 Build 0)  -->
<svg version="1.1" id="Layer_1" xmlns="http://www.w3.org/2000/svg" xmlns:xlink="http://www.w3.org/1999/xlink" x="0px" y="0px"
	 viewBox="0 0 451.296 451.296" style="enable-background:new 0 0 451.296 451.296;" xml:space="preserve">
<circle style="fill:#EA8953;" cx="225.648" cy="225.638" r="225.638"/>
<path style="opacity:0.1;enable-background:new    ;" d="M245.632,96.369H103.656v258.566l94.654,94.654
	c8.969,1.084,18.078,1.707,27.339,1.707c101.805,0,187.833-67.431,215.938-160.055L300.495,150.15L245.632,96.369z"/>
<polygon style="fill:#FFFFFF;" points="245.625,96.355 103.643,96.355 103.643,354.921 300.481,354.921 300.481,150.136 "/>
<polygon style="fill:#D5D6DB;" points="245.625,150.136 300.481,150.136 245.625,96.355 "/>
<g>
	<polygon style="fill:#EBF0F3;" points="300.481,150.136 245.625,150.136 300.481,187.415 	"/>
	<rect x="129.136" y="214.692" style="fill:#EBF0F3;" width="145.859" height="7.05"/>
	<rect x="129.136" y="242.432" style="fill:#EBF0F3;" width="145.859" height="7.05"/>
	<rect x="129.136" y="270.193" style="fill:#EBF0F3;" width="145.859" height="7.05"/>
	<rect x="129.136" y="297.933" style="fill:#EBF0F3;" width="145.859" height="7.05"/>
	<rect x="129.136" y="325.683" style="fill:#EBF0F3;" width="145.859" height="7.05"/>
</g>
<rect x="129.136" y="186.061" style="fill:#F6C358;" width="18.437" height="6.513"/>
<rect x="129.136" y="133.939" style="fill:#FCD462;" width="18.437" height="52.101"/>
<rect x="156.042" y="186.061" style="fill:#3EA69B;" width="18.437" height="6.513"/>
<rect x="156.042" y="110.961" style="fill:#44C4A1;" width="18.437" height="75.085"/>
<rect x="182.958" y="186.061" style="fill:#D15241;" width="18.437" height="6.513"/>
<rect x="182.958" y="145.459" style="fill:#E56353;" width="18.437" height="40.607"/>
<rect x="209.868" y="186.061" style="fill:#2D93BA;" width="18.437" height="6.513"/>
<rect x="209.868" y="125.522" style="fill:#27A2DB;" width="18.437" height="60.529"/>
<rect x="276.911" y="254.383" transform="matrix(-0.2984 0.9545 -0.9545 -0.2984 658.959 135.4552)" style="fill:#E56353;" width="5.56" height="111.104"/>
<path style="fill:#64798A;" d="M285.091,251.341l-5.724,18.312l23.541,7.359l5.727-18.322c2.386-7.632,7.335-14.166,13.932-18.684
	c4.555-3.121,8.135-7.735,9.91-13.415c4.49-14.361-4.362-29.705-19.559-32.674c-11.122-2.173-22.716,3.564-27.67,13.757
	c-3.241,6.667-3.357,13.809-1.093,20.016C286.939,235.324,287.516,243.584,285.091,251.341z"/>
<path style="fill:#3A556A;" d="M276.597,268.787c-4.334-1.355-8.945,1.061-10.3,5.394l44.775,13.997
	c1.354-4.334-1.061-8.945-5.394-10.3l-2.769-0.866l-23.541-7.359L276.597,268.787z"/>
<polygon style="fill:#F6C358;" points="347.653,299.613 229.715,262.746 221.562,288.826 228.571,291.017 332.492,323.503 
	339.5,325.694 "/>
<g>
	<path style="fill:#E56353;" d="M185.318,330.309c-0.438-0.264-0.843-0.407-1.215-0.425c-0.375-0.02-0.767,0.067-1.174,0.261
		l-0.763,0.363l2.547,1.539l0.873-0.415c0.416-0.197,0.583-0.401,0.507-0.611C186.018,330.814,185.759,330.576,185.318,330.309z"/>
	<path style="fill:#E56353;" d="M188.551,327.724c-0.314-0.02-0.671,0.067-1.074,0.259l-0.956,0.455l2.273,1.373l0.936-0.445
		c0.425-0.202,0.622-0.394,0.585-0.582c-0.035-0.185-0.259-0.404-0.677-0.656C189.224,327.877,188.861,327.743,188.551,327.724z"/>
	<path style="fill:#E56353;" d="M179.748,331.955c-0.375-0.02-0.766,0.067-1.174,0.261l-0.763,0.363l2.548,1.539l0.873-0.415
		c0.416-0.197,0.583-0.401,0.507-0.611c-0.075-0.207-0.334-0.445-0.775-0.712C180.526,332.116,180.12,331.973,179.748,331.955z"/>
	<path style="fill:#E56353;" d="M196.926,328.311c0.441-0.21,0.589-0.523,0.443-0.939c-0.143-0.414-0.536-0.815-1.175-1.201
		c-0.64-0.386-1.335-0.644-2.085-0.769c-0.754-0.127-1.352-0.086-1.794,0.124c-0.441,0.21-0.588,0.522-0.442,0.939
		c0.143,0.414,0.536,0.815,1.175,1.202c0.639,0.386,1.335,0.643,2.085,0.769C195.887,328.562,196.484,328.521,196.926,328.311z"/>
	<path style="fill:#E56353;" d="M213.713,317.84c-10.553-6.376-28.752-6.959-40.647-1.303c-11.896,5.656-12.984,15.41-2.431,21.786
		c10.553,6.376,28.752,6.96,40.647,1.303C223.177,333.97,224.266,324.216,213.713,317.84z M204.856,318.671
		c0.798-0.379,1.686-0.504,2.671-0.372c0.982,0.13,1.969,0.495,2.958,1.092c0.985,0.596,1.561,1.168,1.72,1.713
		c0.16,0.547-0.189,1.023-1.047,1.431l-1.477,0.702l-6.354-3.839L204.856,318.671z M202.605,322.646l2.132-1.014l0.956,0.577
		l-2.132,1.014l1.698,1.026l2.451-1.165l1.009,0.609l-3.202,1.523l-6.353-3.838l3.126-1.487l1.009,0.61l-2.375,1.129
		L202.605,322.646z M191.904,331.689l-0.752,0.357l-6.353-3.839l1.655-0.787c0.68-0.323,1.329-0.456,1.949-0.396
		c0.619,0.057,1.289,0.304,2.011,0.74c1.047,0.633,1.391,1.186,1.022,1.655l3.473,0.841l-0.955,0.455l-3.2-0.786l-0.986,0.469
		L191.904,331.689z M183.193,335.831l-0.751,0.357l-6.353-3.839l1.528-0.727c0.675-0.321,1.351-0.444,2.03-0.368
		c0.679,0.076,1.405,0.347,2.174,0.812s1.174,0.879,1.216,1.247c0.042,0.366-0.266,0.704-0.92,1.015l-0.79,0.376L183.193,335.831z
		 M180.443,330.279l1.529-0.727c0.675-0.321,1.351-0.444,2.03-0.368c0.679,0.076,1.405,0.347,2.174,0.812
		c0.769,0.465,1.174,0.879,1.216,1.246c0.042,0.367-0.265,0.704-0.919,1.015l-0.79,0.376l1.865,1.126l-0.751,0.357L180.443,330.279z
		 M192.277,328.033c-0.935-0.565-1.494-1.147-1.671-1.739c-0.177-0.593,0.065-1.047,0.726-1.361c0.662-0.315,1.532-0.39,2.61-0.224
		c1.077,0.165,2.086,0.532,3.021,1.097c0.935,0.565,1.495,1.146,1.672,1.738c0.178,0.593-0.065,1.047-0.727,1.361
		c-0.661,0.314-1.531,0.39-2.609,0.224C194.222,328.964,193.212,328.597,192.277,328.033z M194.107,323.782l0.84-0.4l6.113,2.215
		l-3.375-3.517l0.841-0.4l4.564,4.689l-0.84,0.4L194.107,323.782z M170.982,332.414c-3.27-4.6-1.18-9.991,6.097-13.452
		c7.278-3.46,17.514-3.93,25.646-1.641L170.982,332.414z M179.133,336.202l-2.229,1.06l0.999,1.085l-0.802,0.381l-4.393-4.771
		l0.802-0.381l8.315,2.906l-0.802,0.381L179.133,336.202z M207.267,337.201c-7.278,3.461-17.514,3.93-25.646,1.642l31.743-15.094
		C216.635,328.35,214.545,333.741,207.267,337.201z"/>
	<path style="fill:#E56353;" d="M210.945,320.952c-0.081-0.358-0.479-0.754-1.191-1.184c-1.456-0.88-2.765-1.039-3.933-0.485
		l-0.751,0.357l4.352,2.629l0.834-0.397C210.796,321.617,211.025,321.31,210.945,320.952z"/>
	<polygon style="fill:#E56353;" points="176.218,336.518 177.836,335.749 174.408,334.551 	"/>
</g>
<g>
</g>
<g>
</g>
<g>
</g>
<g>
</g>
<g>
</g>
<g>
</g>
<g>
</g>
<g>
</g>
<g>
</g>
<g>
</g>
<g>
</g>
<g>
</g>
<g>
</g>
<g>
</g>
<g>
</g>
</svg>
